#!OML:ASF F:\VICON\USERDATA\INSTALL\rory3\rory3.ASF
:FULLY-SPECIFIED
:DEGREES
97
root 0.765309 18.0195 -16.7584 -0.908273 -1.08474 2.28056
lowerback 8.20415 -0.724103 -3.72671
upperback 1.46962 -1.22912 1.71435
thorax -2.95883 -0.572537 4.00796
lowerneck -14.9142 -2.75759 -1.5653
upperneck 14.5246 -3.55127 0.836493
head 6.93633 -1.71936 0.161692
rclavicle 2.24627e-014 1.66979e-014
rhumerus -33.4901 -19.1016 -76.041
rradius 28.5581
rwrist 2.66637
rhand -16.0111 20.7356
rfingers 7.12502
rthumb 10.1895 -8.99759
lclavicle 2.24627e-014 1.66979e-014
lhumerus -27.0089 -5.02061 80.1718
lradius 34.9945
lwrist 0.794765
lhand -22.0666 33.4013
lfingers 7.12502
lthumb 4.34442 63.3368
rfemur -29.0049 4.63805 16.81
rtibia 19.2069
rfoot -8.55456 -10.8789
rtoes -2.00458
lfemur 1.79683 -4.37491 -28.6406
ltibia 25.4226
lfoot -19.9134 4.7886
ltoes 0.112478
98
root 0.752292 18.0118 -16.6105 -0.683356 -0.80593 2.43581
lowerback 8.12992 -0.897321 -3.95888
upperback 1.30915 -1.47725 1.75011
thorax -3.05322 -0.688359 4.20298
lowerneck -14.7547 -2.6165 -1.59447
upperneck 14.5887 -3.3459 0.776475
head 6.92668 -1.62847 0.169939
rclavicle 1.1281e-014 -1.11319e-014
rhumerus -33.8528 -18.7916 -75.9369
rradius 28.6013
rwrist 2.77447
rhand -16.1582 20.7845
rfingers 7.12502
rthumb 10.0475 -8.95568
lclavicle 1.1281e-014 -1.11319e-014
lhumerus -27.0219 -4.92644 80.1252
lradius 35.0495
lwrist 0.951948
lhand -22.1896 33.4516
lfingers 7.12502
lthumb 4.22572 63.3894
rfemur -28.4095 5.55533 16.1103
rtibia 15.98
rfoot -8.55009 -11.4851
rtoes -4.23404
lfemur 2.23445 -4.46893 -28.7628
ltibia 25.1089
lfoot -20.0477 4.64546
ltoes 0.198759
99
root 0.735673 17.9996 -16.4645 -0.60263 -0.494153 2.38623
lowerback 8.26874 -0.957422 -3.90707
upperback 1.2555 -1.55852 1.73106
thorax -3.18011 -0.725011 4.16704
lowerneck -14.9374 -2.6798 -1.54912
upperneck 14.7728 -3.45213 0.836903
head 7.01935 -1.67009 0.167332
rclavicle -1.3418e-015 -5.56597e-015
rhumerus -34.0298 -19.2425 -75.8169
rradius 28.4657
rwrist 2.92202
rhand -16.3357 20.6855
rfingers 7.12502
rthumb 9.87631 -9.06287
lclavicle -1.3418e-015 -5.56597e-015
lhumerus -26.6958 -5.12555 80.0342
lradius 35.0332
lwrist 0.729128
lhand -22.9978 29.0939
lfingers 7.12502
lthumb 3.44527 59.0458
rfemur -27.5128 6.6184 15.562
rtibia 12.5961
rfoot -8.58957 -12.3811
rtoes -6.17855
lfemur 2.79343 -4.62048 -28.6652
ltibia 24.8919
lfoot -20.1595 4.46417
ltoes -1.79292
100
root 0.717415 17.9779 -16.315 -0.508521 -0.371602 2.34001
lowerback 8.07588 -0.992474 -3.88594
upperback 1.35493 -1.59588 1.72621
thorax -2.96627 -0.75126 4.14606
lowerneck -15.0868 -2.70649 -1.48479
upperneck 14.696 -3.50619 0.875341
head 7.02029 -1.68828 0.162228
rclavicle 3.18055e-015 -1.03368e-014
rhumerus -33.9238 -19.7254 -75.7621
rradius 28.2348
rwrist 3.16329
rhand -16.3396 20.1923
rfingers 7.12502
rthumb 9.87251 -9.55623
lclavicle 3.18055e-015 -1.03368e-014
lhumerus -26.2295 -5.20715 79.8971
lradius 35.0901
lwrist 0.533085
lhand -23.4376 25.8736
lfingers 7.12502
lthumb 3.02051 55.832
rfemur -26.1892 6.53343 15.6345
rtibia 8.58433
rfoot -7.47012 -11.9611
rtoes -6.43869
lfemur 3.28453 -4.54927 -28.5544
ltibia 24.8038
lfoot -20.3344 4.33664
ltoes -2.33471
101
root 0.701896 17.9568 -16.1614 -0.363554 -0.252133 2.69136
lowerback 7.80771 -1.04393 -4.29887
upperback 1.40055 -1.6913 1.64831
thorax -2.75002 -0.802026 4.29876
lowerneck -15.1955 -2.68797 -1.38184
upperneck 14.7355 -3.48929 0.796962
head 7.0482 -1.6808 0.120153
rclavicle 1.54058e-014 -7.15625e-015
rhumerus -33.9147 -19.8233 -75.7412
rradius 28.1012
rwrist 3.22426
rhand -16.1635 20.0723
rfingers 7.12502
rthumb 10.0424 -9.66812
lclavicle 1.54058e-014 -7.15625e-015
lhumerus -25.8535 -5.15566 79.8016
lradius 34.9687
lwrist 0.610251
lhand -22.9001 29.0045
lfingers 7.12502
lthumb 3.53955 58.9549
rfemur -23.7111 6.36998 15.1446
rtibia 2.39703
rfoot -6.9244 -12.4109
rtoes -14.8383
lfemur 3.65745 -4.4896 -28.8715
ltibia 24.7748
lfoot -20.4934 4.20968
ltoes -2.57027
102
root 0.684646 17.9472 -16.0141 -0.254895 -0.14745 2.61023
lowerback 7.8529 -1.04776 -4.24213
upperback 1.36387 -1.69411 1.63886
thorax -2.81499 -0.801377 4.25914
lowerneck -15.3022 -2.70913 -1.31711
upperneck 14.8773 -3.55501 0.917688
head 7.11457 -1.69644 0.139302
rclavicle -2.52457e-014 5.56597e-015
rhumerus -34.1099 -20.1411 -75.6907
rradius 28.09
rwrist 3.41119
rhand -16.2432 20.3256
rfingers 7.12502
rthumb 9.96554 -9.41846
lclavicle -2.52457e-014 5.56597e-015
lhumerus -25.6109 -5.44534 79.7332
lradius 34.8755
lwrist 0.806057
lhand -23.0427 29.024
lfingers 7.12502
lthumb 3.40188 58.9766
rfemur -22.9624 6.26259 15.1735
rtibia 0
rfoot -6.85882 -12.442
rtoes -15.2493
lfemur 4.04605 -4.45831 -28.6962
ltibia 24.7283
lfoot -20.5296 4.02942
ltoes -3.04851
